<svg width="6" height="11" viewBox="0 0 6 11" fill="none" xmlns="http://www.w3.org/2000/svg">
<path d="M1.27734 10.5215L5.77734 6.02148C5.92969 5.88086 6.00586 5.71094 6.00586 5.51172C6.00586 5.30078 5.92969 5.11914 5.77734 4.9668L1.27734 0.466797C1.13672 0.326172 0.960938 0.255859 0.75 0.255859C0.539062 0.255859 0.363281 0.326172 0.222656 0.466797C0.0703125 0.619141 -0.00585938 0.800781 -0.00585938 1.01172C-0.00585938 1.21094 0.0703125 1.38086 0.222656 1.52148L4.19531 5.49414L0.222656 9.4668C0.0703125 9.61914 -0.00585938 9.80078 -0.00585938 10.0117C-0.00585938 10.2109 0.0703125 10.3809 0.222656 10.5215C0.363281 10.6738 0.539062 10.75 0.75 10.75C0.960938 10.75 1.13672 10.6738 1.27734 10.5215Z" fill="#212529"/>
</svg>
