<svg width="10" height="6" viewBox="0 0 10 6" fill="none" xmlns="http://www.w3.org/2000/svg">
<path d="M1.08984 1.82227C0.971354 1.71289 0.912109 1.58073 0.912109 1.42578C0.912109 1.26172 0.971354 1.12044 1.08984 1.00195C1.19922 0.892578 1.33594 0.837891 1.5 0.837891C1.66406 0.837891 1.80078 0.892578 1.91016 1.00195L5 4.0918L8.08984 1.00195C8.19922 0.892578 8.33594 0.837891 8.5 0.837891C8.66406 0.837891 8.80078 0.892578 8.91016 1.00195C9.02865 1.12044 9.08789 1.26172 9.08789 1.42578C9.08789 1.58073 9.02865 1.71289 8.91016 1.82227L5.41016 5.32227C5.30078 5.44076 5.16406 5.5 5 5.5C4.83594 5.5 4.69922 5.44076 4.58984 5.32227L1.08984 1.82227Z" fill="#515D66"/>
</svg>
