<svg width="23" height="23" viewBox="0 0 23 23" fill="none" xmlns="http://www.w3.org/2000/svg">
<path d="M22.8548 21.3334C21.6915 19.3655 20.0317 17.7341 18.0398 16.6005C16.0478 15.467 13.7928 14.8707 11.4979 14.8707C9.20304 14.8707 6.94798 15.467 4.95601 16.6005C2.96405 17.7341 1.30427 19.3655 0.141025 21.3334C-0.00138538 21.5886 -0.0376415 21.8891 0.0400248 22.1706C0.0766559 22.314 0.143667 22.448 0.236568 22.5635C0.329469 22.679 0.446115 22.7734 0.578691 22.8404C0.74972 22.9369 0.943214 22.9869 1.1398 22.9856C1.33475 22.9938 1.52817 22.948 1.69855 22.8534C1.86893 22.7589 2.0096 22.6191 2.10491 22.4497C3.06783 20.8198 4.44211 19.4685 6.09163 18.5295C7.74115 17.5906 9.60864 17.0967 11.5091 17.0967C13.4096 17.0967 15.2771 17.5906 16.9266 18.5295C18.5761 19.4685 19.9504 20.8198 20.9133 22.4497C21.0632 22.7032 21.3076 22.8875 21.5934 22.9628C21.8792 23.038 22.1832 22.9981 22.4396 22.8516C22.5672 22.7839 22.6791 22.6903 22.768 22.5768C22.8569 22.4634 22.9209 22.3326 22.9558 22.193C22.9973 22.0502 23.0098 21.9006 22.9924 21.753C22.9751 21.6054 22.9283 21.4628 22.8548 21.3334Z" fill="#212529"/>
<path d="M11.5 13.8C13.3083 13.8003 15.0444 13.0842 16.3349 11.8057C17.6253 10.5272 18.3669 8.78854 18.4 6.96384C18.4 5.11691 17.673 3.34563 16.379 2.03966C15.085 0.733688 13.33 0 11.5 0C9.67001 0 7.91497 0.733688 6.62097 2.03966C5.32697 3.34563 4.60001 5.11691 4.60001 6.96384C4.63316 8.78854 5.37473 10.5272 6.66515 11.8057C7.95558 13.0842 9.69172 13.8003 11.5 13.8ZM6.90001 6.96384C6.90001 5.73255 7.38465 4.5517 8.24731 3.68105C9.10998 2.8104 10.28 2.32128 11.5 2.32128C12.72 2.32128 13.89 2.8104 14.7527 3.68105C15.6154 4.5517 16.1 5.73255 16.1 6.96384C16.1 8.19512 15.6154 9.37597 14.7527 10.2466C13.89 11.1173 12.72 11.6064 11.5 11.6064C10.28 11.6064 9.10998 11.1173 8.24731 10.2466C7.38465 9.37597 6.90001 8.19512 6.90001 6.96384Z" fill="#212529"/>
</svg>
