<svg width="27" height="23" viewBox="0 0 27 23" fill="none" xmlns="http://www.w3.org/2000/svg">
<path d="M19.3785 20.7212C19.0831 20.7212 18.7999 20.6036 18.5911 20.3944C18.3823 20.1851 18.2649 19.9014 18.2649 19.6055H16.0378C16.0378 20.4932 16.3898 21.3445 17.0163 21.9722C17.6428 22.5999 18.4925 22.9525 19.3785 22.9525C20.2645 22.9525 21.1142 22.5999 21.7407 21.9722C22.3672 21.3445 22.7191 20.4932 22.7191 19.6055H20.492C20.492 19.9014 20.3747 20.1851 20.1659 20.3944C19.957 20.6036 19.6738 20.7212 19.3785 20.7212Z" fill="#212529"/>
<path d="M11.5426 20.7212C11.2473 20.7212 10.964 20.6036 10.7552 20.3944C10.5464 20.1851 10.4291 19.9014 10.4291 19.6055H8.19153C8.19153 20.0457 8.27806 20.4815 8.44619 20.8882C8.61432 21.2949 8.86075 21.6644 9.1714 21.9757C9.48206 22.2869 9.85087 22.5338 10.2568 22.7023C10.6627 22.8707 11.0977 22.9574 11.537 22.9574C11.9764 22.9574 12.4114 22.8707 12.8173 22.7023C13.2232 22.5338 13.592 22.2869 13.9027 21.9757C14.2133 21.6644 14.4598 21.2949 14.6279 20.8882C14.796 20.4815 14.8825 20.0457 14.8825 19.6055H12.6555C12.6555 19.9012 12.5382 20.1849 12.3296 20.3941C12.1209 20.6033 11.8378 20.721 11.5426 20.7212Z" fill="#212529"/>
<path d="M26.0695 2.26204C26.0089 2.25168 25.9474 2.24655 25.8858 2.2467H8.06908C7.77375 2.2467 7.49052 2.36424 7.28169 2.57347C7.07286 2.78271 6.95554 3.06649 6.95554 3.36239C6.95554 3.65829 7.07286 3.94207 7.28169 4.1513C7.49052 4.36053 7.77375 4.47808 8.06908 4.47808H24.5711L24.2767 6.24785L22.7157 15.635H8.18949L4.40343 6.24785L2.14502 0.697278C2.02559 0.43616 1.81025 0.231252 1.54383 0.125208C1.2774 0.0191644 0.980423 0.0201555 0.71471 0.127975C0.448997 0.235795 0.235023 0.442136 0.117332 0.704045C-0.000360327 0.965954 -0.0127022 1.26325 0.082875 1.53405L3.68867 10.3989L6.14961 16.9341C6.33126 17.4843 6.70638 17.8664 7.24784 17.8664H23.6587C23.9224 17.8665 24.1776 17.7729 24.3788 17.6022C24.5801 17.4314 24.7143 17.1947 24.7577 16.9341L26.5351 6.24785L26.9847 3.54578C27.0332 3.25395 26.9641 2.95478 26.7924 2.71404C26.6208 2.4733 26.3608 2.31072 26.0695 2.26204Z" fill="#212529"/>
</svg>
